<?xml version="1.0" encoding="utf-8"?>
<!-- Generator: Adobe Illustrator 25.0.0, SVG Export Plug-In . SVG Version: 6.00 Build 0)  -->
<svg version="1.1" id="katman_1" xmlns="http://www.w3.org/2000/svg" xmlns:xlink="http://www.w3.org/1999/xlink" x="0px" y="0px"
	 viewBox="0 0 560 400" style="enable-background:new 0 0 560 400;" xml:space="preserve">
<style type="text/css">
	.st0{fill:#B31B1B;}
	.st1{fill:#89572E;stroke:#89572E;stroke-width:0.8507;stroke-miterlimit:8.1644;}
	.st2{fill:#5E3920;stroke:#5E3920;stroke-width:0.8507;stroke-miterlimit:8.1644;}
	.st3{fill:#FFFFFF;}
</style>
<g transform="matrix(2.55138 0 0 -2.55138 -953.682 1101.66)">
	<path class="st0" d="M461.2,309.8l8.6,0c-0.1,0.1-0.1,0.1-0.1,0.1l0.1,0.3c0.8-0.3,2-0.3,2.9-0.3c0.1,1,0.5,1.9,0.5,1.9
		c-2.6,0.8-3.4,2.5-3.4,2.5l0.2,0.3c1.2-0.9,3.5-0.8,3.5-0.8c0.3,1.9,1.7,2.9,1.7,2.9c-3,0.8-3,2.3-3,2.3l0.2,0.3
		c2.2-1,3.1-0.9,3.1-0.9c1.4,6.6,23.8,2.4,23.8,2.4c3.6,0.6,7,2.5,7,2.5l0-1c10.5,4.5,6.1,15.1,6.1,15.1h-15.1v-8.8h-0.6h-24.5h-0.8
		v22.3l-0.2-0.4c-4,2.6-5,6.6-4.8,8.6c0.2,2,0.1,3.5,0.1,3.5l-1-0.3c-2,8.5,3,14.3,3,14.3c-0.5,0.3-5.3,4.8-2.2,10.7
		c3.3,6.2,9.4,4.4,9.4,4.4h21.6v-5.9c0.7-0.5,1.4-1,1.4-1c3.6,0.2,5.9-1.8,5.9-1.8c0.5,0.9,3.8,4.4,8.1,2.5c4.5-2,4.3-6.7,4.3-6.7
		h4.1v14.8l-14.3,13.5h-44.6l-14.3-13.4v-37.9v0c11.1,2.8,12.2-1.9,12.2-1.9c2,0.1,3.5,1,3.5,1l0.2-0.3c-0.6-1.3-3.2-2.4-3.2-2.4
		c0-0.4-0.2-1.3-0.2-1.3c0.5-0.3,0.8-1.1,0.8-1.1c3.2,0.3,4.1,1.1,4.1,1.1l0.2-0.3c-0.7-1.7-3.7-2.6-3.7-2.6
		c0.1-0.6-0.4-1.8-0.4-1.8c0.4-0.4,0.6-1.3,0.6-1.3c2.2-0.3,3.4,0,3.4,0l0.1-0.3c-0.9-1.1-3.5-1.3-3.5-1.3c-0.1-1.3-1-2.6-1-2.6
		c1.8-0.5,3.5-0.1,3.5-0.1l0.1-0.3c-1.2-1.1-3.6-1.2-3.6-1.2c-0.2-1.6-1.7-2.8-1.7-2.8c2.2-0.5,3.6-0.1,3.6-0.1l0.1-0.3
		c-1.2-1.2-4-1.3-4-1.3c-2.3-5.2-9.9-4.5-12.6-4.1v-5.9L461.2,309.8z"/>
	<g transform="matrix(.8 0 0 -.8 444.34 394.311)">
		<path class="st1" d="M37.1,6.2c-4.4,0-8,3.6-8,8c0,3.2,1.9,5.9,4.5,7.2c1.2-0.9,2.4-1.3,2.4-1.3c-0.5,0.5-1,1-1.4,1.5
			c-0.7,1.2-3.3,6.2-2.5,10.9l2.4-1.4c0,0-2,9,2.1,14.8c0,0,0.9,1.6,2.4,2.6c-1-2.1-1.8-4.5-2.2-7c-1-5.5-0.2-10.8,1.8-15.1
			l-1.7,0.6c4.2-8.1,12.8-7.3,12.8-7.3c-0.6,0.9-1.2,2.9-1.2,2.9c0.9-0.7,3.4-0.9,3.4-0.9c-6,5.5-0.1,11.7-0.1,11.7
			c-7.3-4.2-3.6-9-3.6-9c-0.6,0-2,0.7-2,0.7c-0.2-1.4,0.6-3,0.6-3c-3.7,0.3-5,2.1-5,2.1c0.9,0,2.3,0.2,2.3,0.2
			c-2.7,3.9-4.3,9-4.3,14.5c0,5.3,1.5,10.1,3.9,13.9l0.7-2.7c0,0,1.8,4.3,5,6c2,1.1,2.9,3.3,3.4,4.9c0.7-2.5,0.6-5.9,0.6-5.9
			c1.2,1.4,1.3,5.2,1.3,5.2c0.2,2.3,1.6,2.8,1.6,2.8s2.7,1.5,5.8,1.9c3.2,0.4,4.2-0.8,4.2-0.8c2-1.8,2.5-3.4,2.5-3.4
			c-0.1,0.9-0.6,2.6-0.6,2.6c3.7-1.7,5.6-4.9,6.8-7.6c1.3-2.7,2.4-4.2,2.4-4.2l0.5,1.1c0.5-2.2,4-7,4-7c1.1-1.3,2.3-4.5,1.9-6.1
			c-0.3-1.6,0.7-4.6,0.7-4.6c0.4-1.4,0.6-3.6-0.1-4.7c-0.5-0.9-1.2-2.8-1.2-2.8c-0.2-0.8-1.2-3-1.2-3c-0.9-1.7-1.9-3-2.9-4.1
			c-3.6-4-7.5-4.8-9.1-5c1.6,2.3,1.4,4.5,1.4,4.5c-5-9.9-16.9-9.4-16.9-9.4l0.4,0.6c-6.7-0.1-9.8,2.2-9.8,2.2L45,13.1
			C44.5,9.2,41.1,6.2,37.1,6.2L37.1,6.2z M52.8,61c0,0.1,0,0.1,0,0.2C52.8,61.1,52.8,61,52.8,61C52.8,61,52.8,61,52.8,61z M36.4,8.2
			c1.2,0,2.5,0.4,3.6,1.3c3,2.5,2.5,5.1,2.5,5.1l0.6-0.2c-2.1,1.4-5.9,4.3-5.9,4.3c0.1-0.6,0.9-2,0.9-2c-2.5,1.3-4.1,2.7-4.1,2.7
			s-2.1-1.1-2.3-4.7c-0.2-3.6,2.8-5.2,2.8-5.2c-0.4-0.4-1.7-0.7-1.7-0.7S34.4,8.1,36.4,8.2z M62.1,16.7c4,0.5,6,4.7,7.2,7
			c1.2,2.3,1.9,2.4,1.9,2.4c2.8,0.3,5.1-4.2,5.1-4.2c-0.1,2.6-1.5,4.4-1.5,4.4c4.6-3.6,5.4-0.2,5.4-0.2s-1.4-1.6-4,1.6
			c-3.1,3.8-4.4,2.8-4.4,2.8c0.3,0,0.7-0.6,0.7-0.6c-4.9,0.2-9.1-7-9.1-7s-2-2.9-3.6-3.9c-1.6-1-6.8-0.4-6.8-0.4
			c1.1-0.7,3.6-1.2,3.6-1.2c5.4-1,8.2,3.8,8.2,3.8l2.6,3.2C64.6,17.5,62.1,16.7,62.1,16.7L62.1,16.7z M53.7,23.4
			c0,0,6.7-0.7,8.1,6.5c0,0-0.6-0.8-1.4-1.6c-0.5,1.1-1.6,1.7-2.8,1.6c-1.5-0.2-2.6-1.5-2.5-3c0.1-0.5,0.3-1,0.6-1.4
			c-1.1-0.6-2.9-0.9-2.9-0.9s1.1-0.3,2.3-0.2C54.6,24,54.2,23.7,53.7,23.4z M78.9,29.1c1.2,0.1,2.1,0.5,2.1,0.5
			c-0.4,0.1-0.7,0.2-1.1,0.2c0.8,0.3,1.4,0.7,1.4,0.7s-0.2,0-0.6-0.1c0.2,0.2,2,2,1.2,3.9c-0.9,2-3.2,2.1-3.2,2.1c2.5-2.6,2-5.8,2-6
			c-0.3,0-0.8-0.1-1.2-0.1c0.2,0.4,0.2,0.9,0.1,1.4c-0.3,1.2-1.5,1.9-2.7,1.6l0.1,0.3l0.3,2.8c1.6,1.1,0.7,3.3,0.7,3.3
			c1.9,3.8-1.4,7-1.4,7l-2.5,2.4c-0.1-0.7,1-2.2,1-2.2c2.7-3.6,1.9-5.5,1.9-5.5c-0.7,0.4-1.4,0.3-1.4,0.3c-0.8-0.1-0.2-1.4-0.2-1.4
			s0.4-1.2-0.6-1.3c-1-0.1-1.4,1.3-1.4,1.3c-0.5,1.1,0.4,2.1,0.4,2.1c-0.9,0.2-2.5,0.9-2.5,0.9c-1.5-1.1-2.1-2-2.1-2
			c1.6-0.4,2-1.2,2-1.2c0.8-1,0.3-1.7-0.3-2c-0.6-0.2-1.1,0.2-1.3,0.4c-0.1,0.2-0.4,0.4-0.4,0.4c-1.7,1.4-2.6,0.4-2.6,0.4L66.4,39
			c-0.7-0.7-0.7-1.2-0.7-1.2c0.2-1.2,0.9-2.1,0.9-2.1c1.9-2.1,4-1.4,5.9-0.5c1.8,0.9,3.2,0.8,3.2,0.8l-0.2-0.6
			c-0.6-1.3-2.4-1.7-2.4-1.7c0.6-0.3,1.7-0.1,1.7-0.1l-0.2-0.6c-0.3-0.9-1.5-0.9-1.5-0.9l1.7-1.3C76.2,29.3,77.7,29,78.9,29.1
			L78.9,29.1z M68,29.7c0.5,0,1.1,0.2,1.6,0.5l2,1.5l-0.4,0.2c0,0-1.7-1.1-3.1-1.2c-1.4-0.1-2.4,0.1-2.9,0.2L65,30.6
			C65,30.6,66.5,29.6,68,29.7L68,29.7z M69.3,32c0.6,0,1.3,0.3,2,1L71,33.2c0,0-1.9-0.8-3.2-0.4l-0.2-0.3C67.6,32.5,68.3,32,69.3,32
			z M61.4,32c0,0,0.3,1.3-3.2,4.1c-2.6,2.1-3.3,3.2-3.3,3.2c0.3-0.2,2-0.7,2-0.7c-3.4,3.6-4,9.2-4.1,10.2c-0.1,2,0.2,3.4,0.2,3.4
			c-3.7-4.5-2.3-9.2-2.3-9.2L49.1,44c-0.1-5.9,5.3-8.5,5.3-8.5l-1-0.4c1.4-0.2,2.6-0.6,3.5-1C56.1,34,56,33.8,56,33.8
			C59.7,32.8,61.4,32,61.4,32L61.4,32z M0.1,35.3c0,0-11.2,7.3-14.9,14.5l3.3-0.8c0,0-5.5,7.5-3.1,12.7c0,0,1.1,1.5,1.6,1.8
			c0.5,0.3,2,2.2,2.5,3.4l-0.1-0.8c-0.6-1.5-0.7-2.7-0.7-2.7c3.8,6.4,9.9,6.6,9.9,6.6l-3.1,0.7c0,0-0.1,0-0.3,0.1
			C2.1,74.9,8,74.1,8,74.1c1.8-0.6,3.1-1,2.9-2.3c-0.1-0.5-0.4-1.6-0.8-2c2-0.5,3.4-1.8,3.2-3.2c-0.1-0.6-0.5-1.1-1.1-1.6
			c1.8-0.6,2.9-1.8,2.7-3.1c-0.2-0.9-1-1.7-2.2-2.1c1.1-0.7,1.7-1.6,1.5-2.6c-0.2-1.1-1.2-1.9-2.7-2.3c1-0.6,1.5-1.5,1.3-2.4
			c-0.2-1.3-1.8-2.3-3.7-2.5C5.7,50.3,0.9,51.4-6.2,54c0,0,4.1-3.1,6.4-4.4V48c-2.7,1.5-3,2-3,2c0.6-0.8,0.9-1.7,3-3.2v-1.3
			c-3.4,2.7-6.3,5.6-6.3,5.6c1.8-3.3,4-6.7,6.3-9.3v-1.4c0,0-4.2,2.9-7.5,6c0,0,3.7-5.6,7.4-9.6L0.1,35.3L0.1,35.3z M9.1,50
			C9.1,50,9.2,50,9.1,50C9.2,50,9.1,50,9.1,50C9.1,50,9.1,50,9.1,50z M9.2,50c1.4-0.1,2.6-0.1,3.5,0C11.8,49.9,10.6,49.9,9.2,50z
			 M12.7,50c0.1,0,0.2,0,0.3,0C12.9,50,12.8,50,12.7,50z M13,50c0.4,0,0.7,0.1,1,0.2C13.7,50.1,13.3,50,13,50z M14,50.2
			c0.1,0,0.1,0,0.2,0C14.1,50.2,14,50.2,14,50.2z M14.2,50.2c0.3,0.1,0.6,0.2,0.9,0.3C14.8,50.4,14.5,50.3,14.2,50.2z M15.1,50.5
			c0.3,0.1,0.5,0.2,0.7,0.4C15.6,50.7,15.3,50.6,15.1,50.5z M15.8,50.9c0.2,0.1,0.3,0.2,0.4,0.4C16.1,51.1,16,51,15.8,50.9z
			 M16.2,51.2C16.2,51.2,16.3,51.3,16.2,51.2C16.3,51.3,16.2,51.2,16.2,51.2z M16.3,51.3c0.1,0.1,0.1,0.1,0.2,0.2
			C16.4,51.4,16.4,51.4,16.3,51.3z M16.5,51.5c0.1,0.1,0.2,0.3,0.2,0.4C16.7,51.8,16.6,51.6,16.5,51.5z M61.6,43.8
			c0,0,2.4,0.3,3.5,0.5c1,0.3,4.6,0.9,6-0.2c0,0-0.1,1,1.4,2.1c0,0,1.3,1,1.4,1.3c0,0-0.1,0.4-1.7,2.7c-1.7,2.3-1.8,4.4-2.1,5.5
			c-0.3,1.2-1.3,3.8-1.3,3.8s-1,2.5-4.8,2.2c-3.8-0.3-5.6-1.6-5.6-1.6c0.1,0.7,1.2,1.6,1.2,1.6c-2.9-0.7-3.1-1.8-3-6.3
			c0.1-4.5-1.1-8.5-1.1-8.5c-0.6,0.3-1.2,2-1.2,2S52.7,43.5,61.6,43.8z M98.6,51.2c0,0,0.1,0.1,0.2,0.2l0.2,0
			C98.8,51.3,98.7,51.2,98.6,51.2L98.6,51.2z M98.8,51.3c1,0.9,5.5,5.2,7.6,12c0,0-5.4-7.3-13.8-9.6c0,0,10.2,5.4,9.5,17
			c0,0-2.3-4.8-4.8-6.6c0,0,5.5,11-3.1,19.9c0,0,3.9-11.3-2.2-19.5c0,0,1.8,5.9-1.1,11c0,0,1-8.1-3.5-12.7c0,0-0.4,0.6-1.1,1.3
			c0,0,0,0.1,0,0.1C98,89.2,75.3,94.1,75.3,94.1l0.2-1.2c-0.9,0.5-6.5,2.1-6.5,2.1s-4.1-1.9-13.6-2.3c-3-0.1-5.3-0.1-7.1,0.1
			c0.1,0,0.2,0,0.4,0c0.1,0,0.3,0.1,0.4,0.1c-0.9,0.2-1.9,0.7-2.3,1.6c-0.4,0.8-0.2,2.1,0.6,2.6c-1.1,0.2-2.5,0.8-2.9,1.9
			c-0.4,1,0.2,2.2,1.1,2.6c-0.9,0.4-2.4,1.3-2.1,2.5c0.3,1.2,1.8,1.9,2.8,2.2c-0.7,0.4-0.8,1.2-0.7,1.9c0,0.5,0.4,1,0.8,1.3
			c1.1,1,2.7,1.4,4.1,1.5c-0.8,0.7-1,2-0.3,2.9c0.7,0.8,2,0.9,3,1c20.5-1,26.1-12.5,26.1-12.5c0,0.9-0.1,1.9-0.1,2.8
			c-0.1,0.9-0.2,1.8-0.3,2.7c0,0.2-0.1,0.3,0,0.4c6.6-2.1,7.2-5.8,9.8-9.2l-0.9,3.4c4.9-1.9,4-4.9,8.7-12c0,0,0.6,3.8-2.3,8.6
			c3.8-4.1,7.3-9.5,8.4-16c0,0,1,6.2,0,11.3c-1.4,1.4-2.4,7-11,11.9c32.1-15.3,17.2-45.2,17.2-45.2C105.4,55.7,98.8,51.4,98.8,51.3
			L98.8,51.3z M107.2,66.3c0,0,2,3,3.5,7.8c-0.1,4.7-1.1,10.3-4.1,15.8c-0.1,0.1-0.1,0.2-0.2,0.2c0,0-0.1,0.1-0.1,0.1
			c-0.2,0.3-0.4,0.5-0.6,0.8c0,0,0,0,0,0C108.1,86.1,110.2,77.9,107.2,66.3L107.2,66.3z M5.7,77.1c0.1,0,0.5,0,1,0
			C6.2,77.1,5.8,77.1,5.7,77.1z M46.9,93c-0.3,0.1-0.6,0.1-1,0.2c-0.2,0-0.3,0.1-0.5,0.1C45.9,93.2,46.4,93.1,46.9,93z M44.3,93.7
			c-0.2,0.1-0.3,0.1-0.5,0.2c-0.2,0.1-0.4,0.2-0.5,0.3C43.6,93.9,43.9,93.8,44.3,93.7z M43.3,94.1c-0.1,0.1-0.2,0.1-0.3,0.1
			C43.1,94.2,43.2,94.1,43.3,94.1z M43,94.2C43,94.3,43,94.3,43,94.2c-0.1,0.1-0.2,0.1-0.2,0.2C42.9,94.3,42.9,94.3,43,94.2z
			 M42.8,94.4c-0.2,0.1-0.4,0.2-0.5,0.3C42.4,94.7,42.7,94.5,42.8,94.4z M42.4,94.7c-0.2,0.2-0.4,0.4-0.4,0.6
			C42.1,95.1,42.3,94.8,42.4,94.7z M41.9,95.5C41.9,95.5,41.9,95.5,41.9,95.5L41.9,95.5C41.9,95.5,41.9,95.5,41.9,95.5z M39.4,100.6
			c-0.1,0.2-0.1,0.3-0.1,0.3C39.3,100.8,39.3,100.7,39.4,100.6z M40.3,103.6c0.1,0.1,0.2,0.1,0.2,0.1
			C40.4,103.7,40.3,103.7,40.3,103.6z M38.5,105.8c0,0.1,0,0.1,0,0.1C38.5,105.9,38.5,105.8,38.5,105.8z M39.5,108
			C39.5,108,39.6,108,39.5,108C39.6,108,39.5,108,39.5,108C39.5,108,39.5,108,39.5,108z M41.3,109c0.2,0.1,0.3,0.1,0.3,0.1
			C41.5,109.1,41.4,109,41.3,109z M41.2,109.7c-0.1,0.1-0.1,0.3-0.1,0.4C41.1,110,41.1,109.9,41.2,109.7z M41,111.1
			c0,0.1,0,0.2,0,0.2C41,111.2,41,111.1,41,111.1z M46.2,114.4c0.3,0,0.5,0,0.5,0C46.6,114.4,46.4,114.4,46.2,114.4z M45.7,116.1
			c0,0.1,0,0.1,0,0.1C45.7,116.2,45.7,116.2,45.7,116.1z"/>
		<path class="st2" d="M82.7,13.5c-2.1,0-3.9,1.1-4.9,2.7l1.6,1.2c0,0,3.3-4.6,7.6,0.1h-0.8c0,0,1.4,3-2.7,5.3c0,0,0.6,1.2,0.9,2
			c2.3-0.7,4-3,4-5.5C88.5,16.1,85.9,13.5,82.7,13.5L82.7,13.5z M62.1,16.7c0,0,2.5,0.8,5.4,7.7l-2.6-3.2c0,0-2.8-4.9-8.2-3.8
			c0,0-2.6,0.5-3.6,1.2c0,0,5.1-0.6,6.8,0.4c1.6,1,3.6,3.9,3.6,3.9s4.1,7.2,9.1,7c0,0-0.4,0.6-0.7,0.6c0,0,1.3,0.9,4.4-2.8
			c2.6-3.2,4-1.6,4-1.6s-0.7-3.4-5.4,0.2c0,0,1.4-1.8,1.5-4.4c0,0-2.3,4.5-5.1,4.2c0,0-0.7,0-1.9-2.4C68.1,21.4,66.1,17.2,62.1,16.7
			L62.1,16.7z M49.4,19.5c-1.7,0-8.8,0.3-12.4,7.3l1.7-0.6c-2,4.3-2.7,9.6-1.8,15.1c0.4,2.5,1.2,4.8,2.2,7c-1.4-1-2.4-2.6-2.4-2.6
			C32.6,40,34.5,31,34.5,31l-2.4,1.4c-0.8-4.6,1.8-9.7,2.5-10.9c0.1-0.2,0.1-0.2,0.1-0.2c-7.4,8.1-6,14.7-6,14.7
			c0.6-0.5,1.7-1.3,1.7-1.3c0.3,1.1,0.3,2.7,0,8c-0.3,5.4,2.1,7.5,2.1,7.5c0.3-0.8,1.1-2.1,1.1-2.1s1.2,3.4,2.8,4.6
			c1.6,1.2,3.1,3.3,3.1,3.3c0.1-0.6,1.1-2,1.1-2c1.9,2.8,5.3,3.9,8.1,4.5c2.8,0.6,4,2.5,4,2.5c0-0.1,0-0.1,0-0.2
			c-0.5-1.6-1.4-3.8-3.4-4.9c-3.3-1.8-5-6-5-6l-0.7,2.7c-2.4-3.8-3.9-8.6-3.9-13.9c0-5.6,1.6-10.7,4.3-14.5c0,0-1.3-0.2-2.3-0.2
			c0,0,1.3-1.8,5-2.1c0,0-0.8,1.6-0.6,3c0,0,1.4-0.8,2-0.7c0,0-3.7,4.8,3.6,9c0,0-5.9-6.2,0.1-11.7c0,0-2.5,0.1-3.4,0.9
			c0,0,0.7-2,1.2-2.9C49.7,19.6,49.6,19.5,49.4,19.5L49.4,19.5z M80.8,30.5c0,0.2,0.5,3.4-2,6c0,0,2.3-0.1,3.2-2.1
			C82.8,32.5,81,30.7,80.8,30.5C80.8,30.5,80.8,30.5,80.8,30.5L80.8,30.5z M56.8,34.1c-0.9,0.3-2.2,0.7-3.5,1l1,0.4
			c0,0-5.3,2.6-5.3,8.5l1.6-0.8c0,0-1.4,4.7,2.3,9.2c0,0-0.3-1.4-0.2-3.4c0,0.1,0,0.2,0,0.2c-1.5-2.9-0.1-7.2-0.1-7.2
			c-0.5,0.2-1.4,0.9-1.4,0.9c0-2.7,3.2-5.8,4.8-6.9c1.6-1.1,2-1.6,2-1.6c-0.1,0-0.2,0-0.4,0c0,0,0,0,0,0c-0.1,0-0.2,0-0.3,0
			c0,0,0,0,0,0c-0.1,0-0.2,0-0.2,0l0,0C57,34.1,56.9,34.1,56.8,34.1L56.8,34.1z M88.5,37c3.2,2.7,6.2,6.8,6.2,6.8
			c-2.4-2.1-6.7-4.2-6.7-4.2c4.3,3.2,8.5,9.2,8.5,9.2c-4.6-4-10.1-6.7-10.1-6.7c-0.7,3-2.6,5.4-4.8,8.7C79.2,54.3,78,59,78,59
			l-1-1.7c-1.9,4.4-5.5,7.2-9.2,8.9c-8,4.3-15.7-2.3-15.7-2.3v1.7c0,0-2.2-4.1-7.4-4.8c-2.8-0.4-4.5-2.1-4.9-2.4l-0.3,1.6
			c0,0-1.2-0.5-1.4-1V78h23.9v-2.1c-3.8-0.4-6.4-2.4-6.4-2.4c4.8,0.2,6.7-0.7,7-0.8l0,0c-0.5-0.1-7.6-1.8-11.5-5.4
			c13.8,6,24.3-2.3,24.3-2.3c-0.3,1-1.3,3.3-1.3,3.3c6.1-1.3,8.2-4.2,8.2-4.2c-0.1,1.5-1.4,3.6-1.4,3.6c2.4-0.9,4.2-2.3,5.2-3.4
			c0.7-0.8,1.1-1.3,1.1-1.3c4.5,4.6,3.5,12.7,3.5,12.7c2.9-5.1,1.1-11,1.1-11c6.2,8.2,2.2,19.5,2.2,19.5c8.7-8.9,3.1-19.9,3.1-19.9
			c2.5,1.9,4.8,6.6,4.8,6.6c0.6-11.6-9.5-17-9.5-17c8.3,2.3,13.8,9.6,13.8,9.6c-2-6.8-6.6-11.2-7.5-12h0c-0.1-0.1-0.2-0.2-0.2-0.2
			c0.1,0.1,0.2,0.1,0.4,0.2l-0.2,0c0.1,0,6.7,4.3,10.1,10.2l0.4,0.1l2.8,0.8c-2.1-4.5-6.8-10.8-6.8-10.8C96.7,40.5,88.5,37,88.5,37
			L88.5,37z M0.2,41.9c-2.3,2.6-4.5,6-6.3,9.3c0,0,2.9-2.9,6.3-5.6V41.9z M0.2,46.8c-2.2,1.5-2.4,2.3-3,3.2c0,0,0.4-0.5,3-2V46.8z
			 M11.2,49.9c-0.6,0-1.3,0-2.1,0.1c1.9,0.3,3.5,1.2,3.7,2.5c0.2,0.9-0.4,1.8-1.3,2.4c1.4,0.4,2.5,1.3,2.7,2.3
			c0.2,1-0.5,1.9-1.5,2.6c1.2,0.5,2,1.2,2.2,2.1c0.2,1.3-0.9,2.5-2.7,3.1c0.6,0.4,1,1,1.1,1.6c0.2,1.4-1.1,2.7-3.2,3.2
			c0.5,0.4,0.7,1.5,0.8,2c0.2,1.3-1.1,1.7-2.9,2.3c0,0-5.9,0.8-12.8-3.3c0.1,0,0.3-0.1,0.3-0.1l3.1-0.7c0,0-6.1-0.2-9.9-6.6
			c0,0,0.1,1.3,0.7,2.7l0.1,0.8c0,0,5.3,9.3,16.2,10c0,0,0,0,0,0c0.1,0,0.6,0,1.3,0c2,0,5.9-0.3,7.4-2.4l-1.6-0.5l2.1-0.9
			c0,0,0-0.9-0.9-1.7c0,0,2.1-0.6,2.9-1.9l-1.8-0.6l2.1-0.9v0c0-0.1-0.1-1-1.1-1.7c0,0,1.7-0.4,2.5-2l-2-0.8l2.1-0.8c0,0-0.1-1-2-2
			c0,0,1.2-0.7,1.5-1.7l-2.7-0.8l2.5-1c0,0-0.4-1-2.4-1.7c0,0,1-0.8,1.2-1.5l-2.4-0.6l2.2-1.2c0,0,0-0.1,0-0.1c0,0,0,0,0,0
			c0,0,0,0,0,0C16.5,51.4,15.5,49.9,11.2,49.9L11.2,49.9z M107.2,66.3c3,11.6,0.9,19.8-1.4,24.7c0,0,0,0,0,0
			c0.2-0.3,0.4-0.5,0.6-0.8c0,0,0.1-0.1,0.1-0.1c0.1-0.1,0.1-0.2,0.2-0.3c3-5.5,4-11,4.1-15.8C109.2,69.3,107.2,66.3,107.2,66.3z
			 M102.6,83.5c-1.1,6.4-4.6,11.8-8.4,16c2.9-4.8,2.3-8.6,2.3-8.6c-4.7,7.1-3.8,10.1-8.7,12l0.9-3.4c-2.7,3.4-3.2,7.1-9.8,9.2
			c0-0.1,0-0.2,0-0.4c0.1-0.9,0.2-1.8,0.3-2.7c0.1-0.9,0.1-1.9,0.1-2.8c0,0-5.6,11.5-26.1,12.5c-1-0.1-2.3-0.2-3-1
			c-0.7-0.9-0.5-2.2,0.3-2.9c-1.4-0.1-3-0.6-4.1-1.5c-0.4-0.3-0.8-0.8-0.8-1.3c0-0.7,0.1-1.5,0.7-1.9c-1-0.4-2.5-1.1-2.8-2.2
			c-0.3-1.2,1.1-2.1,2.1-2.5c-0.9-0.5-1.5-1.6-1.1-2.6c0.4-1.1,1.9-1.7,2.9-1.9c-0.7-0.5-0.9-1.8-0.6-2.6c0.4-0.9,1.4-1.4,2.3-1.6
			c-0.1,0-0.3-0.1-0.4-0.1c-0.1,0-0.2-0.1-0.4-0.1c-0.1,0-0.3,0-0.4,0c0,0,0,0,0,0c-0.7,0.1-1.3,0.2-1.9,0.3
			c-0.7,0.1-1.4,0.3-2.1,0.6c-0.3,0.1-0.6,0.3-0.9,0.5c-0.1,0.1-0.5,0.5-0.6,0.5l0,0c0,0-0.3,0.4-0.4,0.6c0,0.1-0.1,0.2-0.1,0.2
			c0,0,0,0,0,0v0c0.2,0.1,0.5,0.2,0.7,0.3c0.6,0.2,1.2,0.4,1.8,0.7l-2.8,0.7c0,0.1,0,0.2,0,0.3c0,0,0,0.1,0,0.1c0,0.1,0,0.1,0,0.2
			c0,0.1,0.1,0.1,0.1,0.2c0,0,0,0.1,0.1,0.1c0,0,0,0.1,0.1,0.1c0,0.1,0.1,0.2,0.2,0.3c-0.4,0.1-0.9,0.3-1.3,0.6c0,0,0,0,0,0
			c-0.1,0.1-0.2,0.1-0.3,0.2c-0.4,0.3-0.8,0.8-1,1.3c0,0.1-0.1,0.2-0.1,0.3l2.5,1l-2.1,0.9c0,0.1,0.1,0.2,0.1,0.3c0,0,0,0.1,0.1,0.1
			c0,0.1,0.1,0.1,0.1,0.1c0,0,0.1,0.1,0.1,0.1c0.1,0.1,0.1,0.1,0.2,0.2c0,0,0.1,0,0.1,0.1c0.1,0.1,0.2,0.1,0.2,0.1
			c-0.7,0.4-1.8,1.1-2,2c0,0,0,0.1,0,0.1l2.8,0.9l-2,0.9l-0.2,0.1c0.1,0.1,0.2,0.2,0.3,0.3c0,0,0.1,0,0.1,0.1
			c0.5,0.4,1.1,0.7,1.7,0.9c0.1,0,0.2,0.1,0.3,0.1c-0.1,0.1-0.1,0.1-0.2,0.2c0,0,0,0,0,0c-0.2,0.2-0.3,0.5-0.4,0.8c0,0,0,0,0,0
			c0,0.1,0,0.2,0,0.2c0,0,0,0.1,0,0.1c0,0,0,0.1,0,0.1c0,0.1,0,0.2,0,0.2c0,0,0,0,0,0c0,0.1,0,0.1,0,0.2c0,0.1,0,0.2,0,0.2l2.9,0.6
			l-1.9,0.9c0.1,0.1,0.3,0.2,0.4,0.3c0.1,0.1,0.2,0.1,0.2,0.2c0.1,0,0.1,0.1,0.2,0.1c1,0.6,2.1,0.9,3.2,1c0.2,0,0.3,0,0.5,0
			c0,0-0.1,0.1-0.1,0.1c0,0,0,0.1-0.1,0.1c0,0-0.1,0.1-0.1,0.1c0,0,0,0.1-0.1,0.1c-0.4,0.5-0.6,0.9-0.6,1.3c0,0,0,0.1,0,0.1l2.8,0.1
			l-1.7,1.5c3.3,1.1,6.8,1.2,10.3,0.9c7.3-0.7,14.3-3.4,20.7-7l0.4-0.2c5.9-1.4,10.2-3.1,13.5-5c8.6-4.9,9.5-10.5,11-11.9
			C103.6,89.6,102.6,83.5,102.6,83.5L102.6,83.5z"/>
		<path d="M20.7-19.9L0.3-1v33c0,0-17.7,9.8-19.4,21.6l2-0.4c0,0-2.6,5.5,0,9.7c2.6,4.1,2.2,2.6,4.5,6.8c2.8,5.3,10.8,9.1,10.8,9.1
			v10.7l21.1,20.8l18.1,0c0,0-0.1,0.4,0.3,1.5c-1.2,0.1-3,0.1-4.1-0.3l-0.2,0.4c0,0,2.3,1.8,6.2,2.3c0.7,0.8,1.8,1.6,3.3,2.3
			c0,0,0.1,0.2,0.2,0.6c-1.2,0.1-2.9,0.1-4-0.4l-0.2,0.4c0,0,2.3,1.9,5.6,2.2c12,8.7,35.4-5,35.4-5s42.9-7.8,34.2-47.9l2.9,1
			c0,0-7.4-23.5-29.3-33.6c0,0,1.1-2.9-1.3-6.5c0,0,2.9-1.3,3.9-3.1h9.9v-25L79.8-19.9L20.7-19.9L20.7-19.9z M22-16.9h56.6L97.2,0.5
			v20.2h-6.4c0.1-0.3,0.2-1.1,0.2-1.1s0.2-5.9-5.4-8.4c-5.3-2.4-9.6,2.1-10.1,3.2c0,0-2.8-2.5-7.3-2.3c0,0-0.9-0.7-1.7-1.2v0
			c-0.5-0.4-1.2-0.7-1.2-0.7V4.5h-24c-0.8-0.7-1.8-1.1-1.8-1.1h0.1c0,0-7.6-2.3-11.7,5.5c-3.9,7.4,2.1,13,2.7,13.4
			c0,0-6.2,7.2-3.8,17.9l1.3-0.4c0,0,0.1,1.9-0.1,4.4c-0.2,2.5,1,7.5,6,10.7l0.2-0.5v-0.6c0,0,0.5,0.5,0.9,0.9c0,0,0,0,0.1,0.1v0
			c0.1,0.1,0.2,0.2,0.2,0.2v26.1h30v-11h19.6c0,0,0.3,0.4,0.4,1.1c0,0,5.6,13.3-7.6,18.9l0-1.3c0,0-4.2,2.3-8.7,3.1
			c0,0-28-5.3-29.8,3c0,0-1.1,0.1-3.8-1.1L35,94.2c0,0,0,1.9,3.7,2.9c0,0-1.8,1.3-2.1,3.6c0,0-2.8,0-4.3-1L32,100c0,0,1,2.1,4.3,3.1
			c0,0-0.6,1.1-0.7,2.4c-1.2,0.1-2.7,0-3.7-0.4l-0.2,0.4c0,0,0,0,0.1,0.1c0.3,0.2,1,0.7,2,1.1l-13.2,0L1.2,87.6v-0.9v-7.1
			c0,0,0.7,0.1,1.2,0.1v0.1c3.4,0.5,12.9,1.4,15.8-5.1c0,0,3.4-0.1,5-1.6L23,72.7c0,0-1.8,0.6-4.5-0.1c0,0,1.9-1.5,2.1-3.5
			c0,0,3-0.2,4.5-1.5L25,67.2c0,0-2.2,0.5-4.4-0.1c0,0,1.1-1.6,1.2-3.2c0,0,3.2-0.4,4.4-1.7l-0.1-0.4c0,0-1.5,0.4-4.2,0.1
			c0,0-0.2-1.2-0.7-1.6c0,0,0.6-1.5,0.5-2.3c0,0,3.7-1.1,4.7-3.2L26,54.4c0,0-1,1-5.1,1.3c0,0-0.4-0.9-1-1.3c0,0,0.2-1.1,0.2-1.6
			c0,0,3.3-1.3,4-3L24,49.5c0,0-1.8,1.2-4.3,1.3c0,0-1.3-5.9-15.2-2.4v-0.1c0,0-0.8,0.2-1.1,0.2V0.4L22-16.9L22-16.9z M37.1,6.2
			c4,0,7.4,3,7.9,6.9l0.3-0.1c0,0,3.1-2.3,9.8-2.2l-0.4-0.6c0,0,12-0.4,16.9,9.4c0,0,0.2-2.1-1.4-4.5c1.6,0.2,5.6,1.1,9.1,5
			c1,1.1,2,2.5,2.9,4.1c0,0,1,2.2,1.2,3c0,0,0.7,1.8,1.2,2.8c0.6,1.2,0.5,3.3,0,4.7c0,0-1,3-0.7,4.6c0.3,1.6-0.8,4.8-1.9,6.1
			c0,0-3.5,4.8-4,7l-0.5-1.1c0,0-1.1,1.6-2.4,4.2c-1.3,2.7-3.1,5.9-6.8,7.6c0,0,0.5-1.7,0.6-2.6c0,0-0.5,1.6-2.5,3.4
			c0,0-1.1,1.2-4.2,0.8c-3.2-0.4-5.8-1.9-5.8-1.9s-1.4-0.5-1.6-2.8c0,0-0.2-3.8-1.3-5.2c0,0,0.1,3.6-0.6,6.1c0,0-1.3-1.9-4-2.5
			c-2.8-0.6-6.2-1.7-8.1-4.5c0,0-1,1.4-1.1,2c0,0-1.4-2.1-3.1-3.3c-1.6-1.2-2.8-4.6-2.8-4.6s-0.8,1.2-1.1,2.1c0,0-2.4-2.1-2.1-7.5
			c0.3-5.3,0.3-6.9,0-8c0,0-1.1,0.7-1.7,1.3c0,0-1.4-6.6,6-14.7c0,0-0.1,0.1-0.1,0.2c0.4-0.5,0.9-1,1.4-1.5c0,0-1.2,0.4-2.4,1.3
			c-2.7-1.3-4.5-4-4.5-7.2C29.1,9.8,32.7,6.2,37.1,6.2z M44.7,7.4h17.5v1.9c-4.8-1.7-9.8-1.2-9.8-1.2l0.3,0.8
			c-2-0.1-5.8,0.6-5.8,0.6C46.4,8.4,44.7,7.4,44.7,7.4z M36.4,8.2c-2-0.1-3.7,0.6-3.7,0.6s1.3,0.3,1.7,0.7c0,0-3.1,1.6-2.8,5.2
			c0.2,3.6,2.4,4.7,2.4,4.7s1.6-1.4,4.1-2.7c0,0-0.8,1.4-0.9,2c0,0,3.8-2.9,5.9-4.3l-0.6,0.2c0,0,0.6-2.6-2.4-5.1
			C38.9,8.6,37.6,8.2,36.4,8.2z M82.7,13.5c3.2,0,5.8,2.6,5.8,5.8c0,2.6-1.7,4.8-4,5.5c-0.3-0.8-0.9-2-0.9-2
			c4.1-2.3,2.7-5.3,2.7-5.3h0.8c-4.3-4.7-7.6-0.1-7.6-0.1l-1.6-1.2C78.8,14.6,80.7,13.5,82.7,13.5L82.7,13.5z M53.7,23.4
			c0.5,0.3,0.9,0.6,1.4,0.9c-1.2-0.1-2.3,0.2-2.3,0.2s1.9,0.3,2.9,0.9c-0.3,0.4-0.5,0.9-0.6,1.4c-0.2,1.5,1,2.9,2.5,3
			c1.2,0.1,2.3-0.6,2.8-1.6c0.8,0.8,1.4,1.6,1.4,1.6C60.4,22.8,53.7,23.4,53.7,23.4z M57,26.2c0.2,0.1,0.5,0.3,0.8,0.5
			c-0.2,0.2-0.3,0.4-0.2,0.6c0.1,0.4,0.4,0.6,0.8,0.5c0.2,0,0.4-0.2,0.5-0.4c0.2,0.2,0.5,0.4,0.7,0.6c-0.2,0.3-0.6,0.6-1,0.7
			c-0.9,0.2-1.7-0.4-1.9-1.2C56.6,27.1,56.7,26.6,57,26.2z M78.9,29.1c-1.2-0.1-2.7,0.2-4.1,1.5L73.1,32c0,0,1.1,0.1,1.5,0.9
			l0.2,0.6c0,0-1.1-0.2-1.7,0.1c0,0,1.8,0.5,2.4,1.7l0.2,0.6c0,0-1.4,0.1-3.2-0.8c-1.8-0.9-3.9-1.6-5.9,0.5c0,0-0.8,0.9-0.9,2.1
			c0,0-0.1,0.5,0.7,1.2l0.4,0.3c0,0,0.9,1,2.6-0.4c0,0,0.2-0.2,0.4-0.4c0.2-0.3,0.7-0.7,1.3-0.4c0.6,0.2,1.1,0.9,0.3,2
			c0,0-0.4,0.8-2,1.2c0,0,0.6,0.9,2.1,2c0,0,1.6-0.7,2.5-0.9c0,0-0.9-1-0.4-2.1c0,0,0.4-1.4,1.4-1.3c1,0.1,0.6,1.3,0.6,1.3
			s-0.6,1.3,0.2,1.4c0,0,0.7,0.1,1.4-0.3c0,0,0.7,1.9-1.9,5.5c0,0-1.1,1.5-1,2.2l2.5-2.4c0,0,3.3-3.2,1.4-7c0,0,0.9-2.2-0.7-3.3
			l-0.3-2.8L77,33.4c1.2,0.3,2.4-0.4,2.7-1.6c0.1-0.5,0.1-1-0.1-1.4c0.4,0,0.8,0,1.2,0.1c0,0,0,0,0,0c0.3,0,0.6,0.1,0.6,0.1
			s-0.6-0.4-1.4-0.7c0.4-0.1,0.7-0.2,1.1-0.2C81,29.6,80.1,29.2,78.9,29.1L78.9,29.1z M68,29.7c-1.6-0.1-3,0.9-3,0.9l0.2,0.3
			c0.4-0.1,1.5-0.3,2.9-0.2c1.4,0.1,3.1,1.2,3.1,1.2l0.4-0.2l-2-1.5C69.1,29.9,68.6,29.7,68,29.7L68,29.7z M78.1,30.8
			c0.1,0.3,0.1,0.6-0.1,0.9c-0.3,0.5-1,0.6-1.4,0.3c-0.2-0.1-0.4-0.4-0.4-0.6c0.2-0.1,0.4-0.1,0.6-0.2c0,0.1,0.1,0.2,0.2,0.3
			c0.2,0.1,0.5,0.1,0.6-0.1c0.1-0.1,0.1-0.3,0-0.4C77.7,30.8,77.9,30.8,78.1,30.8L78.1,30.8z M61.4,32c0,0-1.7,0.8-5.4,1.8
			c0,0,0.1,0.2,0.9,0.3c0.1,0,0.1,0,0.2,0c0,0,0,0,0,0c0.1,0,0.2,0,0.2,0c0,0,0,0,0,0c0.1,0,0.2,0,0.3,0c0,0,0,0,0,0
			c0.1,0,0.2,0,0.4,0c0,0-0.3,0.5-2,1.6c-1.6,1.1-4.8,4.1-4.8,6.9c0,0,0.9-0.6,1.4-0.9c0,0-1.4,4.3,0.1,7.2c0,0,0-0.1,0-0.2
			c0.1-1.1,0.7-6.6,4.1-10.2c0,0-1.6,0.4-2,0.7c0,0,0.8-1.1,3.3-3.2C61.7,33.3,61.4,32,61.4,32L61.4,32z M69.3,32
			c-1-0.1-1.7,0.5-1.7,0.5l0.2,0.3c1.3-0.4,3.2,0.4,3.2,0.4l0.4-0.2C70.6,32.3,69.9,32,69.3,32z M0.1,35.3v1.5
			c-3.7,4-7.4,9.6-7.4,9.6c3.3-3.1,7.5-6,7.5-6v9.1C-2.1,50.9-6.2,54-6.2,54c19.6-7,22.5-3,22.9-2.1c0,0,0,0,0,0l0,0
			c0,0.1,0,0.1,0,0.1l-2.2,1.2l2.4,0.6c-0.2,0.7-1.2,1.5-1.2,1.5c2,0.6,2.4,1.7,2.4,1.7l-2.5,1l2.7,0.8c-0.3,1-1.5,1.7-1.5,1.7
			c2,1,2,2,2,2l-2.1,0.8l2,0.8c-0.8,1.6-2.5,2-2.5,2c1,0.7,1.1,1.6,1.1,1.7v0l-2.1,0.9l1.8,0.6c-0.7,1.4-2.9,1.9-2.9,1.9
			c0.9,0.8,0.9,1.7,0.9,1.7l-2.1,0.9l1.6,0.5c-1.5,2.1-5.4,2.4-7.4,2.4c-0.7,0-1.2,0-1.3,0c0,0,0,0,0,0c-11-0.7-16.2-10-16.2-10
			c-0.5-1.2-2-3.1-2.5-3.4c-0.5-0.3-1.6-1.8-1.6-1.8c-2.4-5.2,3.1-12.7,3.1-12.7l-3.3,0.8C-11.1,42.6,0.1,35.3,0.1,35.3L0.1,35.3z
			 M70,35.6c0.6,0,1.3,0.2,2.1,0.7c1.9,1.1,3.6,1,3.6,1s1.3-0.1,1.4,0.9c0,0-0.9-0.3-2.6-0.3c-1.7,0-3-1-3-1s-0.6-0.6-3-0.8
			C68.6,35.9,69.1,35.5,70,35.6L70,35.6z M88.5,37c0,0,8.2,3.5,16.8,14.7c0,0,4.7,6.3,6.8,10.8l-2.8-0.8l-0.4-0.1
			c0,0,14.9,29.8-17.2,45.2c-3.3,1.8-7.6,3.6-13.5,5l-0.4,0.2c-6.4,3.6-13.4,6.3-20.7,7c-3.5,0.3-6.9,0.1-10.3-0.9l1.7-1.5l-2.8-0.1
			c0,0,0,0,0-0.1c0-0.4,0.3-0.8,0.6-1.3c0,0,0-0.1,0.1-0.1c0,0,0.1-0.1,0.1-0.1c0,0,0-0.1,0.1-0.1c0,0,0.1-0.1,0.1-0.1
			c0,0-0.2,0-0.5,0c-1.1-0.1-2.3-0.4-3.2-1c-0.1,0-0.1-0.1-0.2-0.1c-0.1,0-0.2-0.1-0.2-0.2c-0.1-0.1-0.3-0.2-0.4-0.3l1.9-0.9
			l-2.9-0.6c0,0,0-0.1,0-0.2c0-0.1,0-0.1,0-0.2l0,0c0-0.1,0-0.2,0-0.2c0,0,0-0.1,0-0.1c0,0,0-0.1,0-0.1c0-0.1,0-0.2,0-0.2
			c0,0,0,0,0,0c0.1-0.3,0.2-0.5,0.3-0.8c0,0,0,0,0,0c0.1-0.1,0.1-0.1,0.2-0.2c0,0-0.1-0.1-0.3-0.1c-0.6-0.3-1.2-0.6-1.7-1
			c0,0-0.1,0-0.1-0.1l0,0c-0.1-0.1-0.2-0.2-0.3-0.2l0.1-0.1l2-0.9l-2.8-0.9c0,0,0,0,0-0.1c0.2-0.9,1.2-1.6,2-2c0,0-0.1-0.1-0.2-0.2
			c0,0-0.1,0-0.1-0.1c-0.1,0-0.1-0.1-0.2-0.2c0,0-0.1-0.1-0.1-0.1c0,0-0.1-0.1-0.1-0.1c0,0,0-0.1-0.1-0.1c-0.1-0.1-0.1-0.2-0.1-0.3
			l2.1-0.9l-2.5-1c0,0,0-0.1,0.1-0.3c0.2-0.5,0.6-0.9,1-1.3c0.1-0.1,0.2-0.1,0.3-0.2c0,0,0,0,0,0c0.4-0.2,0.8-0.4,1.3-0.6
			c0,0-0.1-0.1-0.2-0.3c0,0,0-0.1-0.1-0.1c0,0,0-0.1-0.1-0.1c0-0.1-0.1-0.1-0.1-0.2c0-0.1,0-0.1,0-0.2c0,0,0-0.1,0-0.1
			c0-0.1,0-0.2,0-0.3l2.8-0.7c-0.6-0.2-1.2-0.4-1.8-0.7c-0.2-0.1-0.5-0.2-0.7-0.3v0l0,0v0c0,0,0-0.1,0.1-0.2
			c0.1-0.1,0.2-0.3,0.4-0.6l0,0c0.6-0.6,2.1-1.4,5.5-1.8h0c0.1,0,0.3,0,0.4,0c1.8-0.2,4.1-0.2,7.1-0.1c9.4,0.4,13.6,2.3,13.6,2.3
			s5.7-1.6,6.5-2.1l-0.2,1.2c0,0,22.7-4.9,10.9-29.7c0,0,0-0.1,0-0.1c-1.1,1.1-2.8,2.6-5.2,3.4c0,0,1.3-2.1,1.4-3.6
			c0,0-2.1,2.9-8.2,4.2c0,0,1-2.3,1.3-3.3c0,0-10.5,8.2-24.3,2.3c3.8,3.6,11,5.3,11.5,5.4l0,0c-0.3,0.1-2.1,1-7,0.8
			c0,0,2.6,2,6.4,2.4V78H38.2V58.9c0.2,0.5,1.4,1,1.4,1l0.3-1.6c0.4,0.3,2.1,2,4.9,2.4c5.3,0.7,7.4,4.8,7.4,4.8v-1.7
			c0,0,7.7,6.6,15.7,2.3c3.7-1.7,7.3-4.4,9.2-8.9l1,1.7c0,0,1.2-4.7,3.6-8.2c2.2-3.2,4.2-5.6,4.8-8.7c0,0,5.4,2.7,10.1,6.7
			c0,0-4.2-6.1-8.5-9.2c0,0,4.3,2,6.7,4.2C94.7,43.8,91.7,39.7,88.5,37L88.5,37z M61.6,43.8c-8.9-0.3-7.3,5.3-7.3,5.3s0.7-1.7,1.2-2
			c0,0,1.2,4.1,1.1,8.5c-0.1,4.5,0.1,5.6,3,6.3c0,0-1.1-0.9-1.2-1.6c0,0,1.7,1.3,5.6,1.6c3.8,0.3,4.8-2.2,4.8-2.2s1-2.7,1.3-3.8
			c0.3-1.2,0.4-3.2,2.1-5.5c1.7-2.3,1.7-2.7,1.7-2.7c-0.2-0.3-1.4-1.3-1.4-1.3c-1.5-1.1-1.4-2.1-1.4-2.1c-1.4,1.1-5,0.5-6,0.2
			C64,44.1,61.6,43.8,61.6,43.8z M61.7,45c0,0,6.3,1.4,8.5,0.7c0,0,0.7,0.8,1.4,1.2c0.8,0.4,1.1,1,0.5,1.9c0,0-0.4,1-1.4,1.7
			c0,0-0.4,0.5-0.4-0.2c0,0,0.3-1.7,0.4-2.2c0,0,0.1-0.4-0.3-0.1c0,0-0.3,0.4-0.6,0.3l-0.3-0.1c0,0-0.3,0-0.3-0.5
			c0,0,0.1-0.3-0.3-0.1c0,0-0.2,0.4-0.6,0.3l-0.4-0.1c0,0-0.2,0-0.3-0.5c0,0,0-0.3-0.4-0.1c0,0-0.2,0.3-0.5,0.3l-0.4-0.1
			c0,0-0.3-0.1-0.3-0.5c0-0.4-0.3-0.2-0.4-0.1c0,0-0.2,0.3-0.5,0.3L64.6,47c0,0-0.3-0.1-0.3-0.5l-0.1-0.3c0,0-0.1-0.6-0.6,0.1
			c0,0-0.8,1-1.1,1.6c0,0-0.7,0.9-0.8,0.1C61.6,48,61.3,46.6,61.7,45L61.7,45z M59.2,54c0.2,0,0.3,0.4,0.3,0.4l0.2,0.9
			c0.1,0.8,0.4,1.6,0.4,1.6c0.2,0.4,0.5,0.1,0.5,0.1c0.2-0.3,0.5-0.3,0.5-0.3l0.6,0.1c0.3,0.1,0.3,0.4,0.3,0.4
			c0,0.4,0.3,0.1,0.3,0.1l0.1-0.1c0.2-0.2,0.4-0.1,0.4-0.1l0.6,0.1c0.3,0.1,0.2,0.4,0.2,0.4c0.1,0.3,0.3,0.1,0.3,0.1l0.1-0.1
			c0.2-0.2,0.4-0.1,0.4-0.1l0.4,0.1c0.2,0.1,0.2,0.4,0.2,0.4c0.1,0.3,0.3,0,0.3,0c0.2-0.2,0.4-0.1,0.4-0.1l0.3,0.1
			c0.3,0.1,0.2,0.3,0.2,0.3c0,0.3,0.3,0.1,0.3,0.1c0.5-0.5,1.6-2,1.6-2c0.6-0.7,0.4,0.1,0.4,0.1c-0.4,2-1.4,3.1-1.4,3.1
			c-0.4,0.6-0.9,0.4-0.9,0.4c-0.4-0.1-0.4-0.6-0.4-0.6c-0.4,0.3-0.7,0.2-0.7,0.2c-0.4-0.1-0.4-0.6-0.4-0.6c-0.3,0.4-0.8,0.3-0.8,0.3
			c-0.6-0.2-0.7-0.7-0.7-0.7c-0.4,0.5-0.9,0.4-0.9,0.4c-0.7-0.2-0.6-0.8-0.6-0.8c-0.6,0.6-1.1,0.4-1.1,0.4c-0.5-0.1-0.6-0.6-0.6-0.6
			c-0.3,0.5-1,0.5-1,0.5c-0.6,0-0.9-0.6-0.9-0.6c-0.5-2.2,0.8-3.8,0.8-3.8C59.1,54.1,59.2,54.1,59.2,54L59.2,54z"/>
		<path class="st3" d="M22-16.9L3.4,0.5v48.1c0.3-0.1,1.1-0.2,1.1-0.2V1l17.9-16.7h55.8L96.1,1.1v18.5h-5.1c0,0-0.1,0.8-0.2,1.1h6.4
			V0.5L78.6-16.9H22z M39.3,3.4c0,0,1,0.4,1.8,1.1h24v5.7c0,0,0.7,0.3,1.2,0.7v0V3.4h-0.8H39.3L39.3,3.4z M57,26.2
			c-0.3,0.4-0.4,0.9-0.3,1.4c0.2,0.9,1.1,1.4,1.9,1.2c0.4-0.1,0.8-0.3,1-0.7c-0.3-0.2-0.5-0.4-0.7-0.6c-0.1,0.2-0.3,0.3-0.5,0.4
			c-0.4,0.1-0.7-0.2-0.8-0.5c-0.1-0.2,0-0.5,0.2-0.6C57.5,26.5,57.2,26.3,57,26.2z M78.1,30.8c-0.2,0-0.4,0.1-0.6,0.1
			c0.1,0.1,0.1,0.3,0,0.4c-0.1,0.2-0.4,0.3-0.6,0.1c-0.1-0.1-0.2-0.2-0.2-0.3c-0.2,0.1-0.4,0.1-0.6,0.2c0.1,0.2,0.2,0.5,0.4,0.6
			c0.5,0.3,1.1,0.2,1.4-0.3C78.2,31.4,78.2,31.1,78.1,30.8L78.1,30.8z M70,35.6c-0.9,0-1.5,0.3-1.5,0.3c2.4,0.2,3,0.8,3,0.8
			s1.4,1.1,3,1c1.7,0,2.6,0.3,2.6,0.3c-0.2-1-1.4-0.9-1.4-0.9s-1.6,0.1-3.6-1C71.3,35.8,70.6,35.6,70,35.6L70,35.6z M61.7,45
			c-0.4,1.6-0.1,3-0.1,3c0.1,0.9,0.8-0.1,0.8-0.1c0.4-0.6,1.1-1.6,1.1-1.6c0.6-0.7,0.6-0.1,0.6-0.1l0,0.3c0,0.3,0.3,0.5,0.3,0.5
			l0.4,0.1c0.3,0.1,0.5-0.3,0.5-0.3c0.2-0.1,0.4-0.3,0.4,0.1c0,0.4,0.3,0.5,0.3,0.5l0.4,0.1c0.3,0.1,0.5-0.3,0.5-0.3
			c0.4-0.2,0.4,0.1,0.4,0.1c0,0.5,0.3,0.5,0.3,0.5l0.4,0.1c0.4,0,0.6-0.3,0.6-0.3c0.4-0.3,0.3,0.1,0.3,0.1c0.1,0.5,0.3,0.5,0.3,0.5
			l0.3,0.1c0.3,0.1,0.6-0.3,0.6-0.3c0.4-0.3,0.3,0.1,0.3,0.1c0,0.5-0.4,2.2-0.4,2.2c0,0.6,0.4,0.2,0.4,0.2c1-0.7,1.4-1.8,1.4-1.8
			c0.5-0.9,0.2-1.6-0.5-1.9c-0.8-0.4-1.4-1.2-1.4-1.2C68,46.4,61.7,45,61.7,45L61.7,45z M34,53.7v28.5h32.3v-11h18.8
			c-0.2-0.7-0.4-1.1-0.4-1.1H65.1v11h-30V55c-0.1-0.1-0.1-0.1-0.2-0.2c0,0,0,0-0.1-0.1C34.5,54.3,34,53.7,34,53.7z M59.2,54
			c-0.1,0-0.2,0.1-0.3,0.3c0,0-1.2,1.6-0.8,3.8c0,0,0.3,0.7,0.9,0.6c0,0,0.7,0,1-0.5c0,0,0.1,0.5,0.6,0.6c0,0,0.6,0.2,1.1-0.4
			c0,0,0,0.5,0.6,0.8c0,0,0.5,0.1,0.9-0.4c0,0,0.1,0.6,0.7,0.7c0,0,0.5,0.1,0.8-0.3c0,0,0.1,0.4,0.4,0.6c0,0,0.4,0.1,0.7-0.2
			c0,0,0,0.6,0.4,0.6c0,0,0.5,0.2,0.9-0.4c0,0,1-1.1,1.4-3.1c0,0,0.1-0.8-0.4-0.1c0,0-1.1,1.5-1.6,2c0,0-0.3,0.2-0.3-0.1
			c0,0,0.1-0.3-0.2-0.3l-0.3-0.1c0,0-0.3-0.1-0.4,0.1c0,0-0.2,0.3-0.3,0c0,0,0-0.3-0.2-0.4l-0.4-0.1c0,0-0.2,0-0.4,0.1l-0.1,0.1
			c0,0-0.2,0.2-0.3-0.1c0,0,0-0.3-0.2-0.4l-0.5-0.1c0,0-0.2-0.1-0.4,0.1l-0.1,0.1c0,0-0.2,0.2-0.3-0.1c0,0,0-0.3-0.3-0.4L61,56.8
			c0,0-0.3,0-0.5,0.3c0,0-0.3,0.3-0.5-0.1c0,0-0.3-0.8-0.4-1.6l-0.2-0.9C59.5,54.5,59.5,54,59.2,54L59.2,54z M1.2,79.6v7.9
			l19.5,19.2l13.2,0c-1-0.5-1.7-0.9-2-1.1l-10.8,0L2.4,87.2v-7.3v-0.1C2,79.7,1.2,79.6,1.2,79.6L1.2,79.6z"/>
	</g>
</g>
</svg>
